# xmcd
#
# Track frame offsets:
#	150
#	18986
#	34283
#	48639
#	62140
#	73917
#	91393
#	106551
#	123899
#	137220
#	148963
#	160275
#	175522
#	189992
#	202222
#
# Disc length: 2953 seconds
#
# Revision: 1
# Processed by: cddbd v1.5.2PL0 Copyright (c) Steve Scherf et al.
# Submitted via: audiograbber 1.83.01
#
DISCID=dc0b870f
DTITLE=The Freelance Band - Out Of The Calaboose
DYEAR=2016
DGENRE=Blues
TTITLE0=Johnny Don't Blow
TTITLE1=Out Of The Calaboose
TTITLE2=Shake Well
TTITLE3=Still Up In The Morning
TTITLE4=The Best Day
TTITLE5=Good Work
TTITLE6=Wild Love
TTITLE7=Making Overtime
TTITLE8=Raining
TTITLE9=Right Between The Eyes
TTITLE10=Average Man
TTITLE11=JJ Cale
TTITLE12=Night Owl
TTITLE13=More Hard Times
TTITLE14=Freelance Dance
EXTD=
EXTT0=
EXTT1=
EXTT2=
EXTT3=
EXTT4=
EXTT5=
EXTT6=
EXTT7=
EXTT8=
EXTT9=
EXTT10=
EXTT11=
EXTT12=
EXTT13=
EXTT14=
PLAYORDER=
